<mxfile host="app.diagrams.net" agent="Mozilla/5.0 (X11; Linux x86_64; rv:127.0) Gecko/20100101 Firefox/127.0" version="24.7.17">
  <diagram name="PÃ¡gina-1" id="noUkz6k109aQCXmaE0m5">
    <mxGraphModel dx="956" dy="509" grid="1" gridSize="10" guides="1" tooltips="1" connect="1" arrows="1" fold="1" page="1" pageScale="1" pageWidth="1169" pageHeight="827" math="0" shadow="0">
      <root>
        <mxCell id="0" />
        <mxCell id="1" parent="0" />
        <mxCell id="3J6eTheVK9Li7ozeEWp2-38" style="edgeStyle=none;shape=connector;rounded=0;orthogonalLoop=1;jettySize=auto;html=1;exitX=1;exitY=0.5;exitDx=0;exitDy=0;entryX=0;entryY=0.5;entryDx=0;entryDy=0;strokeColor=default;align=center;verticalAlign=middle;fontFamily=Helvetica;fontSize=11;fontColor=default;labelBackgroundColor=default;endArrow=none;endFill=0;" edge="1" parent="1" source="3J6eTheVK9Li7ozeEWp2-2" target="3J6eTheVK9Li7ozeEWp2-8">
          <mxGeometry relative="1" as="geometry" />
        </mxCell>
        <mxCell id="3J6eTheVK9Li7ozeEWp2-2" value="dni" style="ellipse;whiteSpace=wrap;html=1;align=center;fontStyle=4;" vertex="1" parent="1">
          <mxGeometry x="40" y="330" width="100" height="40" as="geometry" />
        </mxCell>
        <mxCell id="3J6eTheVK9Li7ozeEWp2-39" style="edgeStyle=none;shape=connector;rounded=0;orthogonalLoop=1;jettySize=auto;html=1;exitX=1;exitY=0.5;exitDx=0;exitDy=0;entryX=0;entryY=0.75;entryDx=0;entryDy=0;strokeColor=default;align=center;verticalAlign=middle;fontFamily=Helvetica;fontSize=11;fontColor=default;labelBackgroundColor=default;endArrow=none;endFill=0;" edge="1" parent="1" source="3J6eTheVK9Li7ozeEWp2-3" target="3J6eTheVK9Li7ozeEWp2-8">
          <mxGeometry relative="1" as="geometry" />
        </mxCell>
        <mxCell id="3J6eTheVK9Li7ozeEWp2-3" value="nombre" style="ellipse;whiteSpace=wrap;html=1;align=center;" vertex="1" parent="1">
          <mxGeometry x="40" y="380" width="100" height="40" as="geometry" />
        </mxCell>
        <mxCell id="3J6eTheVK9Li7ozeEWp2-10" style="edgeStyle=none;shape=connector;rounded=0;orthogonalLoop=1;jettySize=auto;html=1;exitX=0;exitY=0.5;exitDx=0;exitDy=0;entryX=1;entryY=0.5;entryDx=0;entryDy=0;strokeColor=default;align=center;verticalAlign=middle;fontFamily=Helvetica;fontSize=11;fontColor=default;labelBackgroundColor=default;endArrow=none;endFill=0;" edge="1" parent="1" source="3J6eTheVK9Li7ozeEWp2-4" target="3J6eTheVK9Li7ozeEWp2-5">
          <mxGeometry relative="1" as="geometry" />
        </mxCell>
        <mxCell id="3J6eTheVK9Li7ozeEWp2-53" style="edgeStyle=none;shape=connector;rounded=0;orthogonalLoop=1;jettySize=auto;html=1;exitX=1;exitY=0.5;exitDx=0;exitDy=0;entryX=0;entryY=0.5;entryDx=0;entryDy=0;strokeColor=default;align=center;verticalAlign=middle;fontFamily=Helvetica;fontSize=11;fontColor=default;labelBackgroundColor=default;endArrow=none;endFill=0;" edge="1" parent="1" source="3J6eTheVK9Li7ozeEWp2-4" target="3J6eTheVK9Li7ozeEWp2-52">
          <mxGeometry relative="1" as="geometry" />
        </mxCell>
        <mxCell id="3J6eTheVK9Li7ozeEWp2-4" value="asociado" style="shape=rhombus;perimeter=rhombusPerimeter;whiteSpace=wrap;html=1;align=center;" vertex="1" parent="1">
          <mxGeometry x="390" y="80" width="120" height="60" as="geometry" />
        </mxCell>
        <mxCell id="3J6eTheVK9Li7ozeEWp2-11" style="edgeStyle=none;shape=connector;rounded=0;orthogonalLoop=1;jettySize=auto;html=1;exitX=0.5;exitY=1;exitDx=0;exitDy=0;entryX=0.5;entryY=0;entryDx=0;entryDy=0;strokeColor=default;align=center;verticalAlign=middle;fontFamily=Helvetica;fontSize=11;fontColor=default;labelBackgroundColor=default;endArrow=none;endFill=0;" edge="1" parent="1" source="3J6eTheVK9Li7ozeEWp2-5" target="3J6eTheVK9Li7ozeEWp2-7">
          <mxGeometry relative="1" as="geometry" />
        </mxCell>
        <mxCell id="3J6eTheVK9Li7ozeEWp2-5" value="Ordenador" style="shape=ext;margin=3;double=1;whiteSpace=wrap;html=1;align=center;fontFamily=Helvetica;fontSize=11;fontColor=default;labelBackgroundColor=default;" vertex="1" parent="1">
          <mxGeometry x="190" y="80" width="120" height="60" as="geometry" />
        </mxCell>
        <mxCell id="3J6eTheVK9Li7ozeEWp2-32" style="edgeStyle=none;shape=connector;rounded=0;orthogonalLoop=1;jettySize=auto;html=1;exitX=0.5;exitY=1;exitDx=0;exitDy=0;entryX=0.5;entryY=0;entryDx=0;entryDy=0;strokeColor=default;align=center;verticalAlign=middle;fontFamily=Helvetica;fontSize=11;fontColor=default;labelBackgroundColor=default;endArrow=none;endFill=0;" edge="1" parent="1" source="3J6eTheVK9Li7ozeEWp2-6" target="3J6eTheVK9Li7ozeEWp2-31">
          <mxGeometry relative="1" as="geometry" />
        </mxCell>
        <mxCell id="3J6eTheVK9Li7ozeEWp2-6" value="switches" style="shape=ext;margin=3;double=1;whiteSpace=wrap;html=1;align=center;fontFamily=Helvetica;fontSize=11;fontColor=default;labelBackgroundColor=default;" vertex="1" parent="1">
          <mxGeometry x="660" y="522.5" width="120" height="60" as="geometry" />
        </mxCell>
        <mxCell id="3J6eTheVK9Li7ozeEWp2-12" style="edgeStyle=none;shape=connector;rounded=0;orthogonalLoop=1;jettySize=auto;html=1;exitX=0.5;exitY=1;exitDx=0;exitDy=0;strokeColor=default;align=center;verticalAlign=middle;fontFamily=Helvetica;fontSize=11;fontColor=default;labelBackgroundColor=default;endArrow=none;endFill=0;" edge="1" parent="1" source="3J6eTheVK9Li7ozeEWp2-7" target="3J6eTheVK9Li7ozeEWp2-8">
          <mxGeometry relative="1" as="geometry" />
        </mxCell>
        <mxCell id="3J6eTheVK9Li7ozeEWp2-7" value="tiene" style="shape=rhombus;perimeter=rhombusPerimeter;whiteSpace=wrap;html=1;align=center;" vertex="1" parent="1">
          <mxGeometry x="190" y="200" width="120" height="60" as="geometry" />
        </mxCell>
        <mxCell id="3J6eTheVK9Li7ozeEWp2-8" value="Propietario" style="rounded=0;whiteSpace=wrap;html=1;" vertex="1" parent="1">
          <mxGeometry x="190" y="320" width="120" height="60" as="geometry" />
        </mxCell>
        <mxCell id="3J6eTheVK9Li7ozeEWp2-35" style="edgeStyle=none;shape=connector;rounded=0;orthogonalLoop=1;jettySize=auto;html=1;exitX=1;exitY=0.5;exitDx=0;exitDy=0;entryX=0;entryY=0.25;entryDx=0;entryDy=0;strokeColor=default;align=center;verticalAlign=middle;fontFamily=Helvetica;fontSize=11;fontColor=default;labelBackgroundColor=default;endArrow=none;endFill=0;" edge="1" parent="1" source="3J6eTheVK9Li7ozeEWp2-13" target="3J6eTheVK9Li7ozeEWp2-5">
          <mxGeometry relative="1" as="geometry" />
        </mxCell>
        <mxCell id="3J6eTheVK9Li7ozeEWp2-13" value="MAC" style="ellipse;whiteSpace=wrap;html=1;align=center;fontStyle=4;" vertex="1" parent="1">
          <mxGeometry x="40" y="40" width="100" height="40" as="geometry" />
        </mxCell>
        <mxCell id="3J6eTheVK9Li7ozeEWp2-21" style="edgeStyle=none;shape=connector;rounded=0;orthogonalLoop=1;jettySize=auto;html=1;exitX=1;exitY=0.5;exitDx=0;exitDy=0;entryX=0;entryY=0.5;entryDx=0;entryDy=0;strokeColor=default;align=center;verticalAlign=middle;fontFamily=Helvetica;fontSize=11;fontColor=default;labelBackgroundColor=default;endArrow=none;endFill=0;" edge="1" parent="1" source="3J6eTheVK9Li7ozeEWp2-14" target="3J6eTheVK9Li7ozeEWp2-5">
          <mxGeometry relative="1" as="geometry" />
        </mxCell>
        <mxCell id="3J6eTheVK9Li7ozeEWp2-14" value="IP" style="ellipse;whiteSpace=wrap;html=1;align=center;" vertex="1" parent="1">
          <mxGeometry x="40" y="90" width="100" height="40" as="geometry" />
        </mxCell>
        <mxCell id="3J6eTheVK9Li7ozeEWp2-26" style="edgeStyle=none;shape=connector;rounded=0;orthogonalLoop=1;jettySize=auto;html=1;exitX=0;exitY=0.5;exitDx=0;exitDy=0;entryX=1;entryY=0.25;entryDx=0;entryDy=0;strokeColor=default;align=center;verticalAlign=middle;fontFamily=Helvetica;fontSize=11;fontColor=default;labelBackgroundColor=default;endArrow=none;endFill=0;" edge="1" parent="1" source="3J6eTheVK9Li7ozeEWp2-15" target="3J6eTheVK9Li7ozeEWp2-24">
          <mxGeometry relative="1" as="geometry" />
        </mxCell>
        <mxCell id="3J6eTheVK9Li7ozeEWp2-15" value="nombre" style="ellipse;whiteSpace=wrap;html=1;align=center;fontStyle=4;" vertex="1" parent="1">
          <mxGeometry x="820" y="715" width="100" height="40" as="geometry" />
        </mxCell>
        <mxCell id="3J6eTheVK9Li7ozeEWp2-16" value="version" style="ellipse;whiteSpace=wrap;html=1;align=center;" vertex="1" parent="1">
          <mxGeometry x="820" y="765" width="100" height="40" as="geometry" />
        </mxCell>
        <mxCell id="3J6eTheVK9Li7ozeEWp2-40" style="edgeStyle=none;shape=connector;rounded=0;orthogonalLoop=1;jettySize=auto;html=1;exitX=1;exitY=0.5;exitDx=0;exitDy=0;entryX=0.25;entryY=1;entryDx=0;entryDy=0;strokeColor=default;align=center;verticalAlign=middle;fontFamily=Helvetica;fontSize=11;fontColor=default;labelBackgroundColor=default;endArrow=none;endFill=0;" edge="1" parent="1" source="3J6eTheVK9Li7ozeEWp2-17" target="3J6eTheVK9Li7ozeEWp2-8">
          <mxGeometry relative="1" as="geometry" />
        </mxCell>
        <mxCell id="3J6eTheVK9Li7ozeEWp2-17" value="apellidos" style="ellipse;whiteSpace=wrap;html=1;align=center;" vertex="1" parent="1">
          <mxGeometry x="40" y="430" width="100" height="40" as="geometry" />
        </mxCell>
        <mxCell id="3J6eTheVK9Li7ozeEWp2-37" style="edgeStyle=none;shape=connector;rounded=0;orthogonalLoop=1;jettySize=auto;html=1;exitX=1;exitY=0.5;exitDx=0;exitDy=0;entryX=0;entryY=0.25;entryDx=0;entryDy=0;strokeColor=default;align=center;verticalAlign=middle;fontFamily=Helvetica;fontSize=11;fontColor=default;labelBackgroundColor=default;endArrow=none;endFill=0;" edge="1" parent="1" source="3J6eTheVK9Li7ozeEWp2-18" target="3J6eTheVK9Li7ozeEWp2-8">
          <mxGeometry relative="1" as="geometry" />
        </mxCell>
        <mxCell id="3J6eTheVK9Li7ozeEWp2-18" value="telefono" style="ellipse;whiteSpace=wrap;html=1;align=center;" vertex="1" parent="1">
          <mxGeometry x="40" y="284" width="100" height="40" as="geometry" />
        </mxCell>
        <mxCell id="3J6eTheVK9Li7ozeEWp2-34" style="edgeStyle=none;shape=connector;rounded=0;orthogonalLoop=1;jettySize=auto;html=1;exitX=1;exitY=0.5;exitDx=0;exitDy=0;entryX=0;entryY=0.75;entryDx=0;entryDy=0;strokeColor=default;align=center;verticalAlign=middle;fontFamily=Helvetica;fontSize=11;fontColor=default;labelBackgroundColor=default;endArrow=none;endFill=0;" edge="1" parent="1" source="3J6eTheVK9Li7ozeEWp2-20" target="3J6eTheVK9Li7ozeEWp2-5">
          <mxGeometry relative="1" as="geometry" />
        </mxCell>
        <mxCell id="3J6eTheVK9Li7ozeEWp2-20" value="Ubicacion" style="ellipse;whiteSpace=wrap;html=1;align=center;" vertex="1" parent="1">
          <mxGeometry x="40" y="140" width="100" height="40" as="geometry" />
        </mxCell>
        <mxCell id="3J6eTheVK9Li7ozeEWp2-75" style="edgeStyle=none;shape=connector;rounded=0;orthogonalLoop=1;jettySize=auto;html=1;exitX=1;exitY=0.5;exitDx=0;exitDy=0;entryX=0;entryY=0.25;entryDx=0;entryDy=0;strokeColor=default;align=center;verticalAlign=middle;fontFamily=Helvetica;fontSize=11;fontColor=default;labelBackgroundColor=default;endArrow=none;endFill=0;" edge="1" parent="1" source="3J6eTheVK9Li7ozeEWp2-22" target="3J6eTheVK9Li7ozeEWp2-6">
          <mxGeometry relative="1" as="geometry" />
        </mxCell>
        <mxCell id="3J6eTheVK9Li7ozeEWp2-22" value="&lt;u&gt;IP&lt;/u&gt;" style="ellipse;whiteSpace=wrap;html=1;align=center;" vertex="1" parent="1">
          <mxGeometry x="500" y="510" width="100" height="40" as="geometry" />
        </mxCell>
        <mxCell id="3J6eTheVK9Li7ozeEWp2-76" style="edgeStyle=none;shape=connector;rounded=0;orthogonalLoop=1;jettySize=auto;html=1;exitX=1;exitY=0.5;exitDx=0;exitDy=0;entryX=0;entryY=0.75;entryDx=0;entryDy=0;strokeColor=default;align=center;verticalAlign=middle;fontFamily=Helvetica;fontSize=11;fontColor=default;labelBackgroundColor=default;endArrow=none;endFill=0;" edge="1" parent="1" source="3J6eTheVK9Li7ozeEWp2-23" target="3J6eTheVK9Li7ozeEWp2-6">
          <mxGeometry relative="1" as="geometry" />
        </mxCell>
        <mxCell id="3J6eTheVK9Li7ozeEWp2-23" value="Ubicacion" style="ellipse;whiteSpace=wrap;html=1;align=center;" vertex="1" parent="1">
          <mxGeometry x="500" y="555" width="100" height="40" as="geometry" />
        </mxCell>
        <mxCell id="3J6eTheVK9Li7ozeEWp2-24" value="Programa" style="rounded=0;whiteSpace=wrap;html=1;" vertex="1" parent="1">
          <mxGeometry x="660" y="730" width="120" height="60" as="geometry" />
        </mxCell>
        <mxCell id="3J6eTheVK9Li7ozeEWp2-27" style="edgeStyle=none;shape=connector;rounded=0;orthogonalLoop=1;jettySize=auto;html=1;exitX=0;exitY=0.5;exitDx=0;exitDy=0;strokeColor=default;align=center;verticalAlign=middle;fontFamily=Helvetica;fontSize=11;fontColor=default;labelBackgroundColor=default;endArrow=none;endFill=0;entryX=1;entryY=0.75;entryDx=0;entryDy=0;" edge="1" parent="1" source="3J6eTheVK9Li7ozeEWp2-16" target="3J6eTheVK9Li7ozeEWp2-24">
          <mxGeometry relative="1" as="geometry">
            <mxPoint x="800" y="810" as="targetPoint" />
          </mxGeometry>
        </mxCell>
        <mxCell id="3J6eTheVK9Li7ozeEWp2-33" style="edgeStyle=none;shape=connector;rounded=0;orthogonalLoop=1;jettySize=auto;html=1;exitX=0.5;exitY=1;exitDx=0;exitDy=0;entryX=0.5;entryY=0;entryDx=0;entryDy=0;strokeColor=default;align=center;verticalAlign=middle;fontFamily=Helvetica;fontSize=11;fontColor=default;labelBackgroundColor=default;endArrow=none;endFill=0;" edge="1" parent="1" source="3J6eTheVK9Li7ozeEWp2-31" target="3J6eTheVK9Li7ozeEWp2-24">
          <mxGeometry relative="1" as="geometry" />
        </mxCell>
        <mxCell id="3J6eTheVK9Li7ozeEWp2-31" value="ejecuta" style="shape=rhombus;perimeter=rhombusPerimeter;whiteSpace=wrap;html=1;align=center;" vertex="1" parent="1">
          <mxGeometry x="660" y="622.5" width="120" height="60" as="geometry" />
        </mxCell>
        <mxCell id="3J6eTheVK9Li7ozeEWp2-51" style="edgeStyle=none;shape=connector;rounded=0;orthogonalLoop=1;jettySize=auto;html=1;exitX=0.5;exitY=1;exitDx=0;exitDy=0;strokeColor=default;align=center;verticalAlign=middle;fontFamily=Helvetica;fontSize=11;fontColor=default;labelBackgroundColor=default;endArrow=none;endFill=0;" edge="1" parent="1" source="3J6eTheVK9Li7ozeEWp2-42" target="3J6eTheVK9Li7ozeEWp2-44">
          <mxGeometry relative="1" as="geometry" />
        </mxCell>
        <mxCell id="3J6eTheVK9Li7ozeEWp2-42" value="NÂº puerto" style="ellipse;whiteSpace=wrap;html=1;align=center;fontStyle=4;" vertex="1" parent="1">
          <mxGeometry x="990" y="642.5" width="100" height="40" as="geometry" />
        </mxCell>
        <mxCell id="3J6eTheVK9Li7ozeEWp2-73" style="edgeStyle=orthogonalEdgeStyle;shape=connector;rounded=0;orthogonalLoop=1;jettySize=auto;html=1;exitX=0.5;exitY=0;exitDx=0;exitDy=0;entryX=0.5;entryY=0;entryDx=0;entryDy=0;strokeColor=default;align=center;verticalAlign=middle;fontFamily=Helvetica;fontSize=11;fontColor=default;labelBackgroundColor=default;endArrow=none;endFill=0;" edge="1" parent="1" source="3J6eTheVK9Li7ozeEWp2-77" target="3J6eTheVK9Li7ozeEWp2-5">
          <mxGeometry relative="1" as="geometry">
            <Array as="points">
              <mxPoint x="250" y="30" />
            </Array>
          </mxGeometry>
        </mxCell>
        <mxCell id="3J6eTheVK9Li7ozeEWp2-44" value="puerto" style="shape=ext;margin=3;double=1;whiteSpace=wrap;html=1;align=center;fontFamily=Helvetica;fontSize=11;fontColor=default;labelBackgroundColor=default;" vertex="1" parent="1">
          <mxGeometry x="980" y="522.5" width="120" height="60" as="geometry" />
        </mxCell>
        <mxCell id="3J6eTheVK9Li7ozeEWp2-50" style="edgeStyle=none;shape=connector;rounded=0;orthogonalLoop=1;jettySize=auto;html=1;strokeColor=default;align=center;verticalAlign=middle;fontFamily=Helvetica;fontSize=11;fontColor=default;labelBackgroundColor=default;endArrow=none;endFill=0;" edge="1" parent="1" source="3J6eTheVK9Li7ozeEWp2-47" target="3J6eTheVK9Li7ozeEWp2-44">
          <mxGeometry relative="1" as="geometry" />
        </mxCell>
        <mxCell id="3J6eTheVK9Li7ozeEWp2-47" value="tiene" style="shape=rhombus;perimeter=rhombusPerimeter;whiteSpace=wrap;html=1;align=center;" vertex="1" parent="1">
          <mxGeometry x="820" y="522.5" width="120" height="60" as="geometry" />
        </mxCell>
        <mxCell id="3J6eTheVK9Li7ozeEWp2-59" style="edgeStyle=none;shape=connector;rounded=0;orthogonalLoop=1;jettySize=auto;html=1;exitX=0.5;exitY=1;exitDx=0;exitDy=0;entryX=0;entryY=0.5;entryDx=0;entryDy=0;strokeColor=default;align=center;verticalAlign=middle;fontFamily=Helvetica;fontSize=11;fontColor=default;labelBackgroundColor=default;endArrow=none;endFill=0;" edge="1" parent="1" source="3J6eTheVK9Li7ozeEWp2-52" target="3J6eTheVK9Li7ozeEWp2-54">
          <mxGeometry relative="1" as="geometry" />
        </mxCell>
        <mxCell id="3J6eTheVK9Li7ozeEWp2-52" value="Ubicacion" style="rounded=0;whiteSpace=wrap;html=1;" vertex="1" parent="1">
          <mxGeometry x="580" y="80" width="120" height="60" as="geometry" />
        </mxCell>
        <mxCell id="3J6eTheVK9Li7ozeEWp2-57" style="edgeStyle=none;shape=connector;rounded=0;orthogonalLoop=1;jettySize=auto;html=1;exitX=0.5;exitY=1;exitDx=0;exitDy=0;entryX=0.5;entryY=0;entryDx=0;entryDy=0;strokeColor=default;align=center;verticalAlign=middle;fontFamily=Helvetica;fontSize=11;fontColor=default;labelBackgroundColor=default;endArrow=none;endFill=0;" edge="1" parent="1" source="3J6eTheVK9Li7ozeEWp2-54" target="3J6eTheVK9Li7ozeEWp2-55">
          <mxGeometry relative="1" as="geometry" />
        </mxCell>
        <mxCell id="3J6eTheVK9Li7ozeEWp2-58" style="edgeStyle=none;shape=connector;rounded=0;orthogonalLoop=1;jettySize=auto;html=1;exitX=0.5;exitY=0;exitDx=0;exitDy=0;entryX=0.5;entryY=0;entryDx=0;entryDy=0;strokeColor=default;align=center;verticalAlign=middle;fontFamily=Helvetica;fontSize=11;fontColor=default;labelBackgroundColor=default;endArrow=none;endFill=0;" edge="1" parent="1" source="3J6eTheVK9Li7ozeEWp2-54" target="3J6eTheVK9Li7ozeEWp2-56">
          <mxGeometry relative="1" as="geometry" />
        </mxCell>
        <mxCell id="3J6eTheVK9Li7ozeEWp2-54" value="" style="triangle;whiteSpace=wrap;html=1;fontFamily=Helvetica;fontSize=11;fontColor=default;labelBackgroundColor=default;rotation=91;" vertex="1" parent="1">
          <mxGeometry x="610" y="190" width="60" height="80" as="geometry" />
        </mxCell>
        <mxCell id="3J6eTheVK9Li7ozeEWp2-61" style="edgeStyle=none;shape=connector;rounded=0;orthogonalLoop=1;jettySize=auto;html=1;exitX=0;exitY=0.5;exitDx=0;exitDy=0;entryX=1;entryY=0.5;entryDx=0;entryDy=0;strokeColor=default;align=center;verticalAlign=middle;fontFamily=Helvetica;fontSize=11;fontColor=default;labelBackgroundColor=default;endArrow=none;endFill=0;" edge="1" parent="1" source="3J6eTheVK9Li7ozeEWp2-55" target="3J6eTheVK9Li7ozeEWp2-60">
          <mxGeometry relative="1" as="geometry" />
        </mxCell>
        <mxCell id="3J6eTheVK9Li7ozeEWp2-55" value="despacho" style="shape=ext;margin=3;double=1;whiteSpace=wrap;html=1;align=center;fontFamily=Helvetica;fontSize=11;fontColor=default;labelBackgroundColor=default;" vertex="1" parent="1">
          <mxGeometry x="520" y="330" width="100" height="40" as="geometry" />
        </mxCell>
        <mxCell id="3J6eTheVK9Li7ozeEWp2-70" style="edgeStyle=none;shape=connector;rounded=0;orthogonalLoop=1;jettySize=auto;html=1;exitX=0.5;exitY=1;exitDx=0;exitDy=0;strokeColor=default;align=center;verticalAlign=middle;fontFamily=Helvetica;fontSize=11;fontColor=default;labelBackgroundColor=default;endArrow=none;endFill=0;" edge="1" parent="1" source="3J6eTheVK9Li7ozeEWp2-56" target="3J6eTheVK9Li7ozeEWp2-69">
          <mxGeometry relative="1" as="geometry" />
        </mxCell>
        <mxCell id="3J6eTheVK9Li7ozeEWp2-56" value="Laboratorio" style="whiteSpace=wrap;html=1;align=center;fontFamily=Helvetica;fontSize=11;fontColor=default;labelBackgroundColor=default;" vertex="1" parent="1">
          <mxGeometry x="670" y="330" width="100" height="40" as="geometry" />
        </mxCell>
        <mxCell id="3J6eTheVK9Li7ozeEWp2-62" style="edgeStyle=none;shape=connector;rounded=0;orthogonalLoop=1;jettySize=auto;html=1;exitX=0;exitY=0.5;exitDx=0;exitDy=0;entryX=1;entryY=0.5;entryDx=0;entryDy=0;strokeColor=default;align=center;verticalAlign=middle;fontFamily=Helvetica;fontSize=11;fontColor=default;labelBackgroundColor=default;endArrow=none;endFill=0;" edge="1" parent="1" source="3J6eTheVK9Li7ozeEWp2-60" target="3J6eTheVK9Li7ozeEWp2-8">
          <mxGeometry relative="1" as="geometry" />
        </mxCell>
        <mxCell id="3J6eTheVK9Li7ozeEWp2-60" value="asignado" style="shape=rhombus;perimeter=rhombusPerimeter;whiteSpace=wrap;html=1;align=center;" vertex="1" parent="1">
          <mxGeometry x="370" y="322" width="100" height="56" as="geometry" />
        </mxCell>
        <mxCell id="3J6eTheVK9Li7ozeEWp2-67" style="edgeStyle=none;shape=connector;rounded=0;orthogonalLoop=1;jettySize=auto;html=1;exitX=0;exitY=0.5;exitDx=0;exitDy=0;entryX=1;entryY=0.5;entryDx=0;entryDy=0;strokeColor=default;align=center;verticalAlign=middle;fontFamily=Helvetica;fontSize=11;fontColor=default;labelBackgroundColor=default;endArrow=none;endFill=0;" edge="1" parent="1" source="3J6eTheVK9Li7ozeEWp2-63" target="3J6eTheVK9Li7ozeEWp2-52">
          <mxGeometry relative="1" as="geometry" />
        </mxCell>
        <mxCell id="3J6eTheVK9Li7ozeEWp2-63" value="&lt;u&gt;ID&lt;/u&gt;" style="ellipse;whiteSpace=wrap;html=1;align=center;" vertex="1" parent="1">
          <mxGeometry x="740" y="90" width="100" height="40" as="geometry" />
        </mxCell>
        <mxCell id="3J6eTheVK9Li7ozeEWp2-66" style="edgeStyle=none;shape=connector;rounded=0;orthogonalLoop=1;jettySize=auto;html=1;exitX=0;exitY=0.5;exitDx=0;exitDy=0;entryX=1;entryY=0.25;entryDx=0;entryDy=0;strokeColor=default;align=center;verticalAlign=middle;fontFamily=Helvetica;fontSize=11;fontColor=default;labelBackgroundColor=default;endArrow=none;endFill=0;" edge="1" parent="1" source="3J6eTheVK9Li7ozeEWp2-64" target="3J6eTheVK9Li7ozeEWp2-52">
          <mxGeometry relative="1" as="geometry" />
        </mxCell>
        <mxCell id="3J6eTheVK9Li7ozeEWp2-64" value="nombre" style="ellipse;whiteSpace=wrap;html=1;align=center;" vertex="1" parent="1">
          <mxGeometry x="740" y="42.5" width="100" height="40" as="geometry" />
        </mxCell>
        <mxCell id="3J6eTheVK9Li7ozeEWp2-68" style="edgeStyle=none;shape=connector;rounded=0;orthogonalLoop=1;jettySize=auto;html=1;exitX=0;exitY=0.5;exitDx=0;exitDy=0;entryX=1;entryY=0.75;entryDx=0;entryDy=0;strokeColor=default;align=center;verticalAlign=middle;fontFamily=Helvetica;fontSize=11;fontColor=default;labelBackgroundColor=default;endArrow=none;endFill=0;" edge="1" parent="1" source="3J6eTheVK9Li7ozeEWp2-65" target="3J6eTheVK9Li7ozeEWp2-52">
          <mxGeometry relative="1" as="geometry" />
        </mxCell>
        <mxCell id="3J6eTheVK9Li7ozeEWp2-65" value="m2" style="ellipse;whiteSpace=wrap;html=1;align=center;" vertex="1" parent="1">
          <mxGeometry x="740" y="137.5" width="100" height="40" as="geometry" />
        </mxCell>
        <mxCell id="3J6eTheVK9Li7ozeEWp2-71" style="edgeStyle=none;shape=connector;rounded=0;orthogonalLoop=1;jettySize=auto;html=1;exitX=0.5;exitY=1;exitDx=0;exitDy=0;strokeColor=default;align=center;verticalAlign=middle;fontFamily=Helvetica;fontSize=11;fontColor=default;labelBackgroundColor=default;endArrow=none;endFill=0;" edge="1" parent="1" source="3J6eTheVK9Li7ozeEWp2-69" target="3J6eTheVK9Li7ozeEWp2-6">
          <mxGeometry relative="1" as="geometry" />
        </mxCell>
        <mxCell id="3J6eTheVK9Li7ozeEWp2-69" value="asignado" style="shape=rhombus;perimeter=rhombusPerimeter;whiteSpace=wrap;html=1;align=center;" vertex="1" parent="1">
          <mxGeometry x="670" y="400" width="100" height="56" as="geometry" />
        </mxCell>
        <mxCell id="3J6eTheVK9Li7ozeEWp2-74" style="edgeStyle=none;shape=connector;rounded=0;orthogonalLoop=1;jettySize=auto;html=1;exitX=1;exitY=0.5;exitDx=0;exitDy=0;strokeColor=default;align=center;verticalAlign=middle;fontFamily=Helvetica;fontSize=11;fontColor=default;labelBackgroundColor=default;endArrow=none;endFill=0;" edge="1" parent="1" source="3J6eTheVK9Li7ozeEWp2-6">
          <mxGeometry relative="1" as="geometry">
            <mxPoint x="820" y="552.5" as="targetPoint" />
          </mxGeometry>
        </mxCell>
        <mxCell id="3J6eTheVK9Li7ozeEWp2-78" value="" style="edgeStyle=orthogonalEdgeStyle;shape=connector;rounded=0;orthogonalLoop=1;jettySize=auto;html=1;exitX=0.5;exitY=0;exitDx=0;exitDy=0;entryX=0.5;entryY=1;entryDx=0;entryDy=0;strokeColor=default;align=center;verticalAlign=middle;fontFamily=Helvetica;fontSize=11;fontColor=default;labelBackgroundColor=default;endArrow=none;endFill=0;" edge="1" parent="1" source="3J6eTheVK9Li7ozeEWp2-44" target="3J6eTheVK9Li7ozeEWp2-77">
          <mxGeometry relative="1" as="geometry">
            <mxPoint x="1040" y="480" as="sourcePoint" />
            <mxPoint x="250" y="80" as="targetPoint" />
            <Array as="points">
              <mxPoint x="1040" y="230" />
              <mxPoint x="1040" y="230" />
            </Array>
          </mxGeometry>
        </mxCell>
        <mxCell id="3J6eTheVK9Li7ozeEWp2-77" value="conectado" style="shape=rhombus;perimeter=rhombusPerimeter;whiteSpace=wrap;html=1;align=center;" vertex="1" parent="1">
          <mxGeometry x="980" y="200" width="120" height="60" as="geometry" />
        </mxCell>
      </root>
    </mxGraphModel>
  </diagram>
</mxfile>
